<svg xmlns="http://www.w3.org/2000/svg" width="696" height="696">
    <defs>
        <linearGradient id="2y7z9kq84a" x1="0%" x2="0%" y1="100%" y2="0%">
            <stop offset="0%" stop-color="#001B5B"/>
            <stop offset="100%" stop-color="#FF4980"/>
        </linearGradient>
    </defs>
    <path fill="url(#2y7z9kq84a)" fill-rule="evenodd" d="M0 500.081L500.065-.001H522L0 522v-21.919zM422.812-.001h21.932L0 444.746v-21.921L422.812-.001zm-78.3 0h21.932L0 366.446v-21.921L344.512-.001zm-78.3 0h21.932L0 288.146v-21.921L266.212-.001zm-78.3 0h21.932L0 209.846v-21.921L187.912-.001zm-79.334 0H130.5L0 130.499v-21.918L108.578-.001zm-77.266 0h21.932L0 53.246V31.325L31.312-.001zM61.59 522L522 61.593v21.932L83.512 522H61.59zm83.526 0L522 145.118v21.919L167.037 522h-21.921zm84.034 0L522 229.152v21.932L251.084 522H229.15zm83.525 0L522 312.678v21.918L334.597 522h-21.922zm84.559 0L522 397.247v21.921L419.166 522h-21.932zm83.525 0L522 480.759v21.921L502.678 522h-21.919z" opacity=".588"/>
</svg>
