<svg xmlns="http://www.w3.org/2000/svg" width="302.668" height="302.668">
    <path fill="#FFF" fill-rule="evenodd" d="M113.492 227C50.796 227-.011 176.2-.011 113.516-.011 50.809 50.796-.006 113.492-.006c62.681 0 113.503 50.815 113.496 113.522 0 62.676-50.815 113.484-113.496 113.484zm0-208.058c-52.212 0-94.543 42.369-94.543 94.574 0 52.228 42.331 94.543 94.543 94.543 52.204 0 94.536-42.315 94.528-94.543 0-52.213-42.324-94.574-94.528-94.574zm37.437 99.288l-47.136 34.239c-.997.733-2.175 1.103-3.339 1.103-.891 0-1.775-.203-2.583-.611-1.911-.968-3.105-2.925-3.105-5.07V79.375c0-2.123 1.194-4.088 3.105-5.055 1.896-.974 4.192-.786 5.922.469l47.136 34.269c1.473 1.073 2.364 2.758 2.357 4.586 0 1.798-.869 3.491-2.357 4.586z" opacity=".69"/>
</svg>
