<svg xmlns="http://www.w3.org/2000/svg" width="357.332" height="198.667">
    <defs>
        <linearGradient id="80ugy5difa" x1="46.947%" x2="0%" y1="88.295%" y2="0%">
            <stop offset="0%" stop-color="#2F154B"/>
            <stop offset="100%" stop-color="#C9324E"/>
        </linearGradient>
    </defs>
    <path fill="#D2C1BC" fill-rule="evenodd" d="M257.036 85.472c-6.051 0-10.955-4.913-10.955-10.975 0-6.061 4.904-10.976 10.955-10.976 6.049 0 10.953 4.915 10.953 10.976 0 6.062-4.904 10.975-10.953 10.975zm0-63.522c-6.051 0-10.955-4.913-10.955-10.977 0-6.06 4.904-10.975 10.955-10.975 6.049 0 10.953 4.915 10.953 10.975 0 6.064-4.904 10.977-10.953 10.977zm-61.524 127.045c-6.05 0-10.954-4.913-10.954-10.977 0-6.059 4.904-10.975 10.954-10.975 6.05 0 10.954 4.916 10.954 10.975 0 6.064-4.904 10.977-10.954 10.977zm0-63.523c-6.05 0-10.954-4.913-10.954-10.975 0-6.061 4.904-10.976 10.954-10.976 6.05 0 10.954 4.915 10.954 10.976 0 6.062-4.904 10.975-10.954 10.975zm0-63.522c-6.05 0-10.954-4.913-10.954-10.977 0-6.06 4.904-10.975 10.954-10.975 6.05 0 10.954 4.915 10.954 10.975 0 6.064-4.904 10.977-10.954 10.977zm-61.524 127.045c-6.05 0-10.954-4.913-10.954-10.977 0-6.059 4.904-10.975 10.954-10.975 6.05 0 10.955 4.916 10.955 10.975 0 6.064-4.905 10.977-10.955 10.977zm0-63.523c-6.05 0-10.954-4.913-10.954-10.975 0-6.061 4.904-10.976 10.954-10.976 6.05 0 10.955 4.915 10.955 10.976 0 6.062-4.905 10.975-10.955 10.975zm0-63.522c-6.05 0-10.954-4.913-10.954-10.977 0-6.06 4.904-10.975 10.954-10.975 6.05 0 10.955 4.915 10.955 10.975 0 6.064-4.905 10.977-10.955 10.977zM72.464 148.995c-6.049 0-10.953-4.913-10.953-10.977 0-6.059 4.904-10.975 10.953-10.975 6.05 0 10.955 4.916 10.955 10.975 0 6.064-4.905 10.977-10.955 10.977zm0-63.523c-6.049 0-10.953-4.913-10.953-10.975 0-6.061 4.904-10.976 10.953-10.976 6.05 0 10.955 4.915 10.955 10.976 0 6.062-4.905 10.975-10.955 10.975zm0-63.522c-6.049 0-10.953-4.913-10.953-10.977 0-6.06 4.904-10.975 10.953-10.975 6.05 0 10.955 4.915 10.955 10.975 0 6.064-4.905 10.977-10.955 10.977zM10.941 148.995c-6.05 0-10.954-4.913-10.954-10.977 0-6.059 4.904-10.975 10.954-10.975 6.049 0 10.954 4.916 10.954 10.975 0 6.064-4.905 10.977-10.954 10.977zm0-63.523c-6.05 0-10.954-4.913-10.954-10.975 0-6.061 4.904-10.976 10.954-10.976 6.049 0 10.954 4.915 10.954 10.976 0 6.062-4.905 10.975-10.954 10.975zm0-63.522c-6.05 0-10.954-4.913-10.954-10.977 0-6.06 4.904-10.975 10.954-10.975 6.049 0 10.954 4.915 10.954 10.975 0 6.064-4.905 10.977-10.954 10.977zm246.095 105.093c6.049 0 10.953 4.916 10.953 10.975 0 6.064-4.904 10.977-10.953 10.977-6.051 0-10.955-4.913-10.955-10.977 0-6.059 4.904-10.975 10.955-10.975z"/>
    <path fill="url(#80ugy5difa)" d="M257.036 85.472c-6.051 0-10.955-4.913-10.955-10.975 0-6.061 4.904-10.976 10.955-10.976 6.049 0 10.953 4.915 10.953 10.976 0 6.062-4.904 10.975-10.953 10.975zm0-63.522c-6.051 0-10.955-4.913-10.955-10.977 0-6.06 4.904-10.975 10.955-10.975 6.049 0 10.953 4.915 10.953 10.975 0 6.064-4.904 10.977-10.953 10.977zm-61.524 127.045c-6.05 0-10.954-4.913-10.954-10.977 0-6.059 4.904-10.975 10.954-10.975 6.05 0 10.954 4.916 10.954 10.975 0 6.064-4.904 10.977-10.954 10.977zm0-63.523c-6.05 0-10.954-4.913-10.954-10.975 0-6.061 4.904-10.976 10.954-10.976 6.05 0 10.954 4.915 10.954 10.976 0 6.062-4.904 10.975-10.954 10.975zm0-63.522c-6.05 0-10.954-4.913-10.954-10.977 0-6.06 4.904-10.975 10.954-10.975 6.05 0 10.954 4.915 10.954 10.975 0 6.064-4.904 10.977-10.954 10.977zm-61.524 127.045c-6.05 0-10.954-4.913-10.954-10.977 0-6.059 4.904-10.975 10.954-10.975 6.05 0 10.955 4.916 10.955 10.975 0 6.064-4.905 10.977-10.955 10.977zm0-63.523c-6.05 0-10.954-4.913-10.954-10.975 0-6.061 4.904-10.976 10.954-10.976 6.05 0 10.955 4.915 10.955 10.976 0 6.062-4.905 10.975-10.955 10.975zm0-63.522c-6.05 0-10.954-4.913-10.954-10.977 0-6.06 4.904-10.975 10.954-10.975 6.05 0 10.955 4.915 10.955 10.975 0 6.064-4.905 10.977-10.955 10.977zM72.464 148.995c-6.049 0-10.953-4.913-10.953-10.977 0-6.059 4.904-10.975 10.953-10.975 6.05 0 10.955 4.916 10.955 10.975 0 6.064-4.905 10.977-10.955 10.977zm0-63.523c-6.049 0-10.953-4.913-10.953-10.975 0-6.061 4.904-10.976 10.953-10.976 6.05 0 10.955 4.915 10.955 10.976 0 6.062-4.905 10.975-10.955 10.975zm0-63.522c-6.049 0-10.953-4.913-10.953-10.977 0-6.06 4.904-10.975 10.953-10.975 6.05 0 10.955 4.915 10.955 10.975 0 6.064-4.905 10.977-10.955 10.977zM10.941 148.995c-6.05 0-10.954-4.913-10.954-10.977 0-6.059 4.904-10.975 10.954-10.975 6.049 0 10.954 4.916 10.954 10.975 0 6.064-4.905 10.977-10.954 10.977zm0-63.523c-6.05 0-10.954-4.913-10.954-10.975 0-6.061 4.904-10.976 10.954-10.976 6.049 0 10.954 4.915 10.954 10.976 0 6.062-4.905 10.975-10.954 10.975zm0-63.522c-6.05 0-10.954-4.913-10.954-10.977 0-6.06 4.904-10.975 10.954-10.975 6.049 0 10.954 4.915 10.954 10.975 0 6.064-4.905 10.977-10.954 10.977zm246.095 105.093c6.049 0 10.953 4.916 10.953 10.975 0 6.064-4.904 10.977-10.953 10.977-6.051 0-10.955-4.913-10.955-10.977 0-6.059 4.904-10.975 10.955-10.975z"/>
</svg>
