<svg xmlns="http://www.w3.org/2000/svg" width="200.001" height="358.666">
    <defs>
        <linearGradient id="hog47tsmpa" x1="46.947%" x2="0%" y1="88.295%" y2="0%">
            <stop offset="0%" stop-color="#2F154B"/>
            <stop offset="100%" stop-color="#C9324E"/>
        </linearGradient>
    </defs>
    <path fill="#D2C1BC" fill-rule="evenodd" d="M138.136 207.104c-6.048 0-10.953-4.902-10.953-10.95 0-6.047 4.905-10.95 10.953-10.95 6.05 0 10.953 4.903 10.953 10.95 0 6.048-4.903 10.95-10.953 10.95zm0-61.501c-6.048 0-10.953-4.903-10.953-10.95 0-6.048 4.905-10.951 10.953-10.951 6.05 0 10.953 4.903 10.953 10.951 0 6.047-4.903 10.95-10.953 10.95zm0-61.503c-6.048 0-10.953-4.902-10.953-10.95 0-6.048 4.905-10.951 10.953-10.951 6.05 0 10.953 4.903 10.953 10.951 0 6.048-4.903 10.95-10.953 10.95zm0-61.502c-6.048 0-10.953-4.902-10.953-10.95 0-6.048 4.905-10.95 10.953-10.95 6.05 0 10.953 4.902 10.953 10.95 0 6.048-4.903 10.95-10.953 10.95zM74.747 268.606c-6.048 0-10.953-4.902-10.953-10.95 0-6.047 4.905-10.95 10.953-10.95 6.05 0 10.952 4.903 10.952 10.95 0 6.048-4.902 10.95-10.952 10.95zm0-61.502c-6.048 0-10.953-4.902-10.953-10.95 0-6.047 4.905-10.95 10.953-10.95 6.05 0 10.952 4.903 10.952 10.95 0 6.048-4.902 10.95-10.952 10.95zm0-61.501c-6.048 0-10.953-4.903-10.953-10.95 0-6.048 4.905-10.951 10.953-10.951 6.05 0 10.952 4.903 10.952 10.951 0 6.047-4.902 10.95-10.952 10.95zm0-61.503c-6.048 0-10.953-4.902-10.953-10.95 0-6.048 4.905-10.951 10.953-10.951 6.05 0 10.952 4.903 10.952 10.951 0 6.048-4.902 10.95-10.952 10.95zm0-61.502c-6.048 0-10.953-4.902-10.953-10.95 0-6.048 4.905-10.95 10.953-10.95 6.05 0 10.952 4.902 10.952 10.95 0 6.048-4.902 10.95-10.952 10.95zm-63.39 246.008c-6.048 0-10.953-4.902-10.953-10.95 0-6.047 4.905-10.95 10.953-10.95 6.05 0 10.953 4.903 10.953 10.95 0 6.048-4.903 10.95-10.953 10.95zm0-61.502c-6.048 0-10.953-4.902-10.953-10.95 0-6.047 4.905-10.95 10.953-10.95 6.05 0 10.953 4.903 10.953 10.95 0 6.048-4.903 10.95-10.953 10.95zm0-61.501c-6.048 0-10.953-4.903-10.953-10.95 0-6.048 4.905-10.951 10.953-10.951 6.05 0 10.953 4.903 10.953 10.951 0 6.047-4.903 10.95-10.953 10.95zm0-61.503C5.309 84.1.404 79.198.404 73.15c0-6.048 4.905-10.951 10.953-10.951 6.05 0 10.953 4.903 10.953 10.951 0 6.048-4.903 10.95-10.953 10.95zm0-61.502c-6.048 0-10.953-4.902-10.953-10.95C.404 5.6 5.309.698 11.357.698c6.05 0 10.953 4.902 10.953 10.95 0 6.048-4.903 10.95-10.953 10.95zm126.779 224.108c6.05 0 10.953 4.903 10.953 10.95 0 6.048-4.903 10.95-10.953 10.95-6.048 0-10.953-4.902-10.953-10.95 0-6.047 4.905-10.95 10.953-10.95z"/>
    <path fill="url(#hog47tsmpa)" d="M138.136 207.104c-6.048 0-10.953-4.902-10.953-10.95 0-6.047 4.905-10.95 10.953-10.95 6.05 0 10.953 4.903 10.953 10.95 0 6.048-4.903 10.95-10.953 10.95zm0-61.501c-6.048 0-10.953-4.903-10.953-10.95 0-6.048 4.905-10.951 10.953-10.951 6.05 0 10.953 4.903 10.953 10.951 0 6.047-4.903 10.95-10.953 10.95zm0-61.503c-6.048 0-10.953-4.902-10.953-10.95 0-6.048 4.905-10.951 10.953-10.951 6.05 0 10.953 4.903 10.953 10.951 0 6.048-4.903 10.95-10.953 10.95zm0-61.502c-6.048 0-10.953-4.902-10.953-10.95 0-6.048 4.905-10.95 10.953-10.95 6.05 0 10.953 4.902 10.953 10.95 0 6.048-4.903 10.95-10.953 10.95zM74.747 268.606c-6.048 0-10.953-4.902-10.953-10.95 0-6.047 4.905-10.95 10.953-10.95 6.05 0 10.952 4.903 10.952 10.95 0 6.048-4.902 10.95-10.952 10.95zm0-61.502c-6.048 0-10.953-4.902-10.953-10.95 0-6.047 4.905-10.95 10.953-10.95 6.05 0 10.952 4.903 10.952 10.95 0 6.048-4.902 10.95-10.952 10.95zm0-61.501c-6.048 0-10.953-4.903-10.953-10.95 0-6.048 4.905-10.951 10.953-10.951 6.05 0 10.952 4.903 10.952 10.951 0 6.047-4.902 10.95-10.952 10.95zm0-61.503c-6.048 0-10.953-4.902-10.953-10.95 0-6.048 4.905-10.951 10.953-10.951 6.05 0 10.952 4.903 10.952 10.951 0 6.048-4.902 10.95-10.952 10.95zm0-61.502c-6.048 0-10.953-4.902-10.953-10.95 0-6.048 4.905-10.95 10.953-10.95 6.05 0 10.952 4.902 10.952 10.95 0 6.048-4.902 10.95-10.952 10.95zm-63.39 246.008c-6.048 0-10.953-4.902-10.953-10.95 0-6.047 4.905-10.95 10.953-10.95 6.05 0 10.953 4.903 10.953 10.95 0 6.048-4.903 10.95-10.953 10.95zm0-61.502c-6.048 0-10.953-4.902-10.953-10.95 0-6.047 4.905-10.95 10.953-10.95 6.05 0 10.953 4.903 10.953 10.95 0 6.048-4.903 10.95-10.953 10.95zm0-61.501c-6.048 0-10.953-4.903-10.953-10.95 0-6.048 4.905-10.951 10.953-10.951 6.05 0 10.953 4.903 10.953 10.951 0 6.047-4.903 10.95-10.953 10.95zm0-61.503C5.309 84.1.404 79.198.404 73.15c0-6.048 4.905-10.951 10.953-10.951 6.05 0 10.953 4.903 10.953 10.951 0 6.048-4.903 10.95-10.953 10.95zm0-61.502c-6.048 0-10.953-4.902-10.953-10.95C.404 5.6 5.309.698 11.357.698c6.05 0 10.953 4.902 10.953 10.95 0 6.048-4.903 10.95-10.953 10.95zm126.779 224.108c6.05 0 10.953 4.903 10.953 10.95 0 6.048-4.903 10.95-10.953 10.95-6.048 0-10.953-4.902-10.953-10.95 0-6.047 4.905-10.95 10.953-10.95z"/>
</svg>
